<mxfile host="Electron" agent="Mozilla/5.0 (Macintosh; Intel Mac OS X 10_15_7) AppleWebKit/537.36 (KHTML, like Gecko) draw.io/27.0.9 Chrome/134.0.6998.205 Electron/35.4.0 Safari/537.36" version="27.0.9">
  <diagram name="SFU Course Graph DFD (Improved)" id="eKAzNdAu7IfEroV1cgkg">
    <mxGraphModel dx="996" dy="806" grid="1" gridSize="10" guides="1" tooltips="1" connect="1" arrows="1" fold="1" page="1" pageScale="1" pageWidth="1654" pageHeight="1169" math="0" shadow="0">
      <root>
        <mxCell id="0" />
        <mxCell id="1" parent="0" />
        <mxCell id="khUBSF5W42iCneQy1zpq-1" value="User" style="shape=cylinder;whiteSpace=wrap;html=1;boundedLbl=1;" vertex="1" parent="1">
          <mxGeometry x="40" y="220" width="100" height="60" as="geometry" />
        </mxCell>
        <mxCell id="khUBSF5W42iCneQy1zpq-2" value="SFU Outlines API" style="shape=cylinder;whiteSpace=wrap;html=1;boundedLbl=1;" vertex="1" parent="1">
          <mxGeometry x="1060" y="120" width="160" height="60" as="geometry" />
        </mxCell>
        <mxCell id="khUBSF5W42iCneQy1zpq-3" value="Google Gemini API" style="shape=cylinder;whiteSpace=wrap;html=1;boundedLbl=1;" vertex="1" parent="1">
          <mxGeometry x="1060" y="300" width="160" height="60" as="geometry" />
        </mxCell>
        <mxCell id="khUBSF5W42iCneQy1zpq-4" value="FloatingNavbar&lt;div&gt;Captures input, fires onSearch, Reset View&lt;/div&gt;" style="rounded=1;whiteSpace=wrap;html=1;" vertex="1" parent="1">
          <mxGeometry x="220" y="100" width="260" height="80" as="geometry" />
        </mxCell>
        <mxCell id="khUBSF5W42iCneQy1zpq-5" value="NavbarWrapper&lt;div&gt;&amp;nbsp;Manages state, handles search, caches data&lt;/div&gt;" style="rounded=1;whiteSpace=wrap;html=1;" vertex="1" parent="1">
          <mxGeometry x="220" y="220" width="260" height="100" as="geometry" />
        </mxCell>
        <mxCell id="khUBSF5W42iCneQy1zpq-6" value="CourseGraph&amp;nbsp;&lt;div&gt;Renders D3, handles hover/click, resetGraph&lt;/div&gt;" style="rounded=1;whiteSpace=wrap;html=1;" vertex="1" parent="1">
          <mxGeometry x="220" y="400" width="260" height="100" as="geometry" />
        </mxCell>
        <mxCell id="khUBSF5W42iCneQy1zpq-7" value="/api/sfu-courses&amp;nbsp;&lt;div&gt;Proxies to SFU API&lt;/div&gt;" style="rounded=1;whiteSpace=wrap;html=1;" vertex="1" parent="1">
          <mxGeometry x="620" y="100" width="230" height="80" as="geometry" />
        </mxCell>
        <mxCell id="khUBSF5W42iCneQy1zpq-8" value="/api/build-graph&amp;nbsp;&lt;div&gt;Expands prerequisites recursively&lt;/div&gt;" style="rounded=1;whiteSpace=wrap;html=1;" vertex="1" parent="1">
          <mxGeometry x="620" y="220" width="230" height="90" as="geometry" />
        </mxCell>
        <mxCell id="khUBSF5W42iCneQy1zpq-9" value="/api/parse-prereqs (1-55) Uses Gemini for course extraction" style="rounded=1;whiteSpace=wrap;html=1;" vertex="1" parent="1">
          <mxGeometry x="620" y="360" width="230" height="80" as="geometry" />
        </mxCell>
        <mxCell id="khUBSF5W42iCneQy1zpq-10" value="type + Enter" style="endArrow=block;rounded=1;" edge="1" parent="1" source="khUBSF5W42iCneQy1zpq-1" target="khUBSF5W42iCneQy1zpq-4">
          <mxGeometry relative="1" as="geometry" />
        </mxCell>
        <mxCell id="khUBSF5W42iCneQy1zpq-11" value="onSearch(value)" style="endArrow=block;rounded=1;" edge="1" parent="1" source="khUBSF5W42iCneQy1zpq-4" target="khUBSF5W42iCneQy1zpq-5">
          <mxGeometry relative="1" as="geometry" />
        </mxCell>
        <mxCell id="khUBSF5W42iCneQy1zpq-12" value="GET outlines" style="endArrow=block;rounded=1;" edge="1" parent="1" source="khUBSF5W42iCneQy1zpq-5" target="khUBSF5W42iCneQy1zpq-7">
          <mxGeometry relative="1" as="geometry" />
        </mxCell>
        <mxCell id="khUBSF5W42iCneQy1zpq-13" value="return JSON" style="endArrow=block;rounded=1;dashed=1;" edge="1" parent="1" source="khUBSF5W42iCneQy1zpq-7" target="khUBSF5W42iCneQy1zpq-5">
          <mxGeometry relative="1" as="geometry" />
        </mxCell>
        <mxCell id="khUBSF5W42iCneQy1zpq-14" value="" style="endArrow=block;rounded=1;" edge="1" parent="1" source="khUBSF5W42iCneQy1zpq-5" target="khUBSF5W42iCneQy1zpq-8">
          <mxGeometry x="0.0045" relative="1" as="geometry">
            <mxPoint as="offset" />
          </mxGeometry>
        </mxCell>
        <mxCell id="khUBSF5W42iCneQy1zpq-15" value="GET outlines" style="endArrow=block;rounded=1;" edge="1" parent="1" source="khUBSF5W42iCneQy1zpq-8" target="khUBSF5W42iCneQy1zpq-7">
          <mxGeometry relative="1" as="geometry" />
        </mxCell>
        <mxCell id="khUBSF5W42iCneQy1zpq-16" value="return outlines" style="endArrow=block;rounded=1;dashed=1;" edge="1" parent="1" source="khUBSF5W42iCneQy1zpq-7" target="khUBSF5W42iCneQy1zpq-8">
          <mxGeometry relative="1" as="geometry" />
        </mxCell>
        <mxCell id="khUBSF5W42iCneQy1zpq-17" value="return courses" style="endArrow=block;rounded=1;" edge="1" parent="1" source="khUBSF5W42iCneQy1zpq-8" target="khUBSF5W42iCneQy1zpq-9">
          <mxGeometry relative="1" as="geometry" />
        </mxCell>
        <mxCell id="khUBSF5W42iCneQy1zpq-18" value="" style="endArrow=block;rounded=1;dashed=1;" edge="1" parent="1" source="khUBSF5W42iCneQy1zpq-9" target="khUBSF5W42iCneQy1zpq-8">
          <mxGeometry relative="1" as="geometry" />
        </mxCell>
        <mxCell id="khUBSF5W42iCneQy1zpq-19" value="" style="endArrow=block;rounded=1;" edge="1" parent="1" source="khUBSF5W42iCneQy1zpq-8" target="khUBSF5W42iCneQy1zpq-5">
          <mxGeometry x="0.0034" relative="1" as="geometry">
            <mxPoint as="offset" />
          </mxGeometry>
        </mxCell>
        <mxCell id="khUBSF5W42iCneQy1zpq-34" value="return nodes+links" style="edgeLabel;html=1;align=center;verticalAlign=middle;resizable=0;points=[];" vertex="1" connectable="0" parent="khUBSF5W42iCneQy1zpq-19">
          <mxGeometry x="-0.1333" y="2" relative="1" as="geometry">
            <mxPoint as="offset" />
          </mxGeometry>
        </mxCell>
        <mxCell id="khUBSF5W42iCneQy1zpq-20" value="" style="endArrow=block;rounded=1;" edge="1" parent="1" source="khUBSF5W42iCneQy1zpq-5" target="khUBSF5W42iCneQy1zpq-6">
          <mxGeometry relative="1" as="geometry">
            <mxPoint as="offset" />
          </mxGeometry>
        </mxCell>
        <mxCell id="khUBSF5W42iCneQy1zpq-36" value="set graphData&lt;br style=&quot;padding: 0px; margin: 0px;&quot;&gt;+&amp;nbsp;node click" style="edgeLabel;html=1;align=center;verticalAlign=middle;resizable=0;points=[];" vertex="1" connectable="0" parent="khUBSF5W42iCneQy1zpq-20">
          <mxGeometry x="-0.0113" y="1" relative="1" as="geometry">
            <mxPoint as="offset" />
          </mxGeometry>
        </mxCell>
        <mxCell id="khUBSF5W42iCneQy1zpq-21" value="" style="endArrow=block;rounded=1;" edge="1" parent="1" target="khUBSF5W42iCneQy1zpq-5">
          <mxGeometry relative="1" as="geometry">
            <mxPoint x="350" y="360" as="sourcePoint" />
          </mxGeometry>
        </mxCell>
        <mxCell id="khUBSF5W42iCneQy1zpq-22" value="GET details" style="endArrow=block;rounded=1;" edge="1" parent="1" source="khUBSF5W42iCneQy1zpq-5" target="khUBSF5W42iCneQy1zpq-7">
          <mxGeometry relative="1" as="geometry" />
        </mxCell>
        <mxCell id="khUBSF5W42iCneQy1zpq-23" value="return details&#xa;+ get detailed" style="endArrow=block;rounded=1;dashed=1;" edge="1" parent="1" source="khUBSF5W42iCneQy1zpq-7" target="khUBSF5W42iCneQy1zpq-5">
          <mxGeometry relative="1" as="geometry" />
        </mxCell>
        <mxCell id="khUBSF5W42iCneQy1zpq-24" value="fetch outlines&#xa;+ JSON output" style="endArrow=block;rounded=1;" edge="1" parent="1" source="khUBSF5W42iCneQy1zpq-7" target="khUBSF5W42iCneQy1zpq-2">
          <mxGeometry relative="1" as="geometry" />
        </mxCell>
        <mxCell id="khUBSF5W42iCneQy1zpq-25" value="" style="endArrow=block;rounded=1;dashed=1;" edge="1" parent="1" source="khUBSF5W42iCneQy1zpq-2" target="khUBSF5W42iCneQy1zpq-7">
          <mxGeometry relative="1" as="geometry" />
        </mxCell>
        <mxCell id="khUBSF5W42iCneQy1zpq-26" value="prompt&#xa;+Â parsed array" style="endArrow=block;rounded=1;" edge="1" parent="1" source="khUBSF5W42iCneQy1zpq-9" target="khUBSF5W42iCneQy1zpq-3">
          <mxGeometry relative="1" as="geometry" />
        </mxCell>
        <mxCell id="khUBSF5W42iCneQy1zpq-27" value="" style="endArrow=block;rounded=1;dashed=1;" edge="1" parent="1" source="khUBSF5W42iCneQy1zpq-3" target="khUBSF5W42iCneQy1zpq-9">
          <mxGeometry relative="1" as="geometry" />
        </mxCell>
      </root>
    </mxGraphModel>
  </diagram>
</mxfile>
